<svg width="500" height="300" viewBox="0 0 500 300" xmlns="http://www.w3.org/2000/svg">
  <style>
    .skin-dark { fill: #8D5524; }
    .skin-light { fill: #F5D0C5; }
    .hair { fill: #3E2723; }
    .shirt-yellow { fill: #FFC107; }
    .shirt-white { fill: #FFFFFF; }
    .speech-bubble { fill: #FF5722; }
  </style>
  
  <!-- Child -->
  <g transform="translate(100, 50)">
    <circle cx="50" cy="50" r="40" class="skin-dark"/>
    <path d="M 30 70 Q 50 80 70 70" class="skin-dark" fill="none" stroke="#6D4C41" stroke-width="2"/>
    <circle cx="35" cy="45" r="5" fill="#3E2723"/>
    <circle cx="65" cy="45" r="5" fill="#3E2723"/>
    <path d="M 20 20 Q 50 0 80 30" class="hair"/>
    <rect x="20" y="90" width="60" height="80" rx="5" class="shirt-yellow"/>
  </g>

  <!-- Speech Bubble -->
  <g transform="translate(220, 80)">
    <rect width="60" height="60" rx="10" class="speech-bubble"/>
    <circle cx="30" cy="30" r="15" fill="#FFFFFF"/>
  </g>

  <!-- Professional -->
  <g transform="translate(350, 50)">
    <circle cx="50" cy="50" r="40" class="skin-light"/>
    <path d="M 30 70 Q 50 80 70 70" fill="none" stroke="#D7A086" stroke-width="2"/>
    <circle cx="35" cy="45" r="5" fill="#3E2723"/>
    <circle cx="65" cy="45" r="5" fill="#3E2723"/>
    <path d="M 20 10 Q 50 0 80 20" class="hair"/>
    <path d="M 80 20 Q 90 40 85 70" class="hair"/>
    <rect x="20" y="90" width="60" height="80" rx="5" class="shirt-white" stroke="#EEEEEE"/>
  </g>
</svg> 